HIERARCHY
ROOT Hips
{
	OFFSET 0 0 0
	CHANNELS 6 Xposition Yposition Zposition Zrotation Yrotation Xrotation 
	JOINT Chest
	{
		OFFSET 0 10.3669 -0.000175
		CHANNELS 3 Zrotation Yrotation Xrotation 
		JOINT Chest2
		{
			OFFSET 0 11.4338 0.000318
			CHANNELS 3 Zrotation Yrotation Xrotation 
			JOINT Chest3
			{
				OFFSET 0 10.3311 0
				CHANNELS 3 Zrotation Yrotation Xrotation 
				JOINT Chest4
				{
					OFFSET 0 10.3311 0
					CHANNELS 3 Zrotation Yrotation Xrotation 
					JOINT Neck
					{
						OFFSET 0 14.5301 0
						CHANNELS 3 Zrotation Yrotation Xrotation 
						JOINT Head
						{
							OFFSET 0 9.61625 0.000757
							CHANNELS 3 Zrotation Yrotation Xrotation 
							End Site
							{
								OFFSET 0 18.3982 0.000395
							}
						}
					}
					JOINT RightCollar
					{
						OFFSET -3.15947 8.10757 0
						CHANNELS 3 Zrotation Yrotation Xrotation 
						JOINT RightShoulder
						{
							OFFSET -14.7594 0 0
							CHANNELS 3 Zrotation Yrotation Xrotation 
							JOINT RightElbow
							{
								OFFSET 0 -31.5618 0
								CHANNELS 3 Zrotation Yrotation Xrotation 
								JOINT RightWrist
								{
									OFFSET 0 -25.8116 -0
									CHANNELS 3 Zrotation Yrotation Xrotation 
									End Site
									{
										OFFSET 0 -19.2963 0
									}
								}
							}
						}
					}
					JOINT LeftCollar
					{
						OFFSET 3.15947 8.10757 0
						CHANNELS 3 Zrotation Yrotation Xrotation 
						JOINT LeftShoulder
						{
							OFFSET 14.7594 0 0
							CHANNELS 3 Zrotation Yrotation Xrotation 
							JOINT LeftElbow
							{
								OFFSET 0 -31.5618 0
								CHANNELS 3 Zrotation Yrotation Xrotation 
								JOINT LeftWrist
								{
									OFFSET 0 -25.8116 -0
									CHANNELS 3 Zrotation Yrotation Xrotation 
									End Site
									{
										OFFSET 0 -19.2963 0
									}
								}
							}
						}
					}
				}
			}
		}
	}
	JOINT RightHip
	{
		OFFSET -8.42048 0.000859 8.8e-005
		CHANNELS 3 Zrotation Yrotation Xrotation 
		JOINT RightKnee
		{
			OFFSET 0 -43.6119 -8.3e-005
			CHANNELS 3 Zrotation Yrotation Xrotation 
			JOINT RightAnkle
			{
				OFFSET 0 -42.6305 -0.00014
				CHANNELS 3 Zrotation Yrotation Xrotation 
				JOINT RightToe
				{
					OFFSET 0 -7.53943 17.1199
					CHANNELS 3 Zrotation Yrotation Xrotation 
					End Site
					{
						OFFSET 0 -1.59521 6.94063
					}
				}
			}
		}
	}
	JOINT LeftHip
	{
		OFFSET 8.42048 0.000859 8.8e-005
		CHANNELS 3 Zrotation Yrotation Xrotation 
		JOINT LeftKnee
		{
			OFFSET 0 -43.6119 -8.3e-005
			CHANNELS 3 Zrotation Yrotation Xrotation 
			JOINT LeftAnkle
			{
				OFFSET 0 -42.6305 -0.00014
				CHANNELS 3 Zrotation Yrotation Xrotation 
				JOINT LeftToe
				{
					OFFSET 0 -7.53943 17.1199
					CHANNELS 3 Zrotation Yrotation Xrotation 
					End Site
					{
						OFFSET 0 -1.59521 6.94063
					}
				}
			}
		}
	}
}
MOTION
Frames:	14
Frame Time:	0.008333
-21.0923  94.2086  127.947  4.26385  67.9775  -4.25054  0.628354  0.726312  6.77413  0.268638  0.331956  3.00968  0.268638  0.331956  3.00968  0.199849  0.250297  2.25711  -1.50603  -3.27027  22.7335  -1.8829  -6.39455  6.0738  12.6357  -2.04127  6.39299  -26.8039  -18.6692  -3.72286  -1.22731  10.6511  4.34454  -14.8708  8.81245  -21.3063  -1.59115  5.67593  5.76137  6.10691  11.8493  -10.8469  8.77207  21.9407  14.6788  22.9074  -32.1464  -39.3415  -0.717286  -6.63132  12.7383  -1.7769  -0.575177  11.6663  3.09181  -7.70732  -20.9729  0.0448336  -0.00492584  0.445795  1.79547  -2.72974  -6.87868  -5.88135  1.72999  27.6533  -2.24393  0.619671  -8.47378  0.542017  -0.00546397  -0.777267  
-21.0361  94.1906  127.949  4.44321  68.2116  -3.95909  0.58072  0.80385  6.74992  0.246378  0.365688  2.99888  0.246378  0.365688  2.99888  0.182993  0.275484  2.24901  -1.52685  -3.29492  22.6449  -1.91035  -6.4469  5.91001  12.5792  -2.0412  6.3446  -26.6371  -18.7157  -3.82345  -1.07667  10.2682  4.15359  -14.6628  8.83646  -21.2888  -1.61388  5.70469  5.72405  6.31369  11.8306  -10.7546  8.50217  21.9381  14.4921  22.9189  -32.119  -39.313  -0.788835  -6.77739  12.79  -1.76221  -0.594193  11.5193  3.10056  -7.75163  -21.0803  0.0434938  -0.00468576  0.421219  1.87603  -3.18181  -7.55189  -6.02634  2.21452  28.4757  -2.42267  0.616734  -8.35349  0.637852  -0.00731492  -0.975754  
-20.9472  94.175  127.948  4.6232  68.4203  -3.65756  0.537813  0.89005  6.72793  0.226096  0.403348  2.98906  0.226096  0.403348  2.98906  0.167603  0.303626  2.24164  -1.5492  -3.30418  22.5577  -1.94478  -6.4715  5.74905  12.5433  -2.05406  6.33736  -26.4994  -18.6993  -3.95919  -0.893149  9.82916  3.94874  -14.4807  8.8875  -21.2453  -1.62883  5.73637  5.70581  6.51518  11.8179  -10.6734  8.30751  21.9009  14.3269  22.8539  -32.0746  -39.2661  -0.862468  -6.89691  12.8397  -1.74093  -0.627117  11.3768  3.09934  -7.77823  -21.1813  0.0482439  -0.00462569  0.389165  1.9303  -3.60996  -8.17913  -6.15252  2.70769  29.279  -2.56647  0.640241  -8.21906  0.699408  -0.0103988  -1.17493  
-20.8226  94.1608  127.944  4.80154  68.5995  -3.37889  0.501245  0.988514  6.71354  0.208447  0.446561  2.98261  0.208447  0.446561  2.98261  0.154159  0.335948  2.23679  -1.57716  -3.30003  22.4675  -1.99296  -6.47315  5.58283  12.5012  -2.05032  6.32129  -26.3756  -18.6477  -4.10779  -0.683555  9.39711  3.68663  -14.2963  8.92641  -21.1902  -1.65472  5.77278  5.68067  6.69585  11.7962  -10.6168  8.05729  21.942  14.1787  22.9101  -32.0768  -39.2824  -0.937736  -6.97714  12.898  -1.72522  -0.673372  11.2434  3.10479  -7.80546  -21.2537  0.055675  -0.00458316  0.344907  1.98349  -3.99166  -8.80459  -6.28339  3.18715  30.1294  -2.6912  0.697178  -8.07704  0.739171  -0.0140825  -1.3626  
-20.6615  94.1481  127.94  4.97554  68.7529  -3.0778  0.472364  1.09875  6.6977  0.194053  0.495118  2.97549  0.194053  0.495118  2.97549  0.143131  0.372294  2.23145  -1.60669  -3.28409  22.3806  -2.04743  -6.45366  5.42294  12.464  -2.0343  6.32285  -26.2767  -18.5261  -4.28122  -0.476125  8.9612  3.4477  -14.1246  8.97207  -21.1352  -1.67588  5.80101  5.66124  6.8598  11.7921  -10.5588  7.88362  21.9346  14.0435  22.8942  -32.0488  -39.2777  -1.00976  -7.0086  12.9355  -1.70467  -0.748203  11.1166  3.12347  -7.86826  -21.3092  0.0667922  -0.00458765  0.286207  2.0246  -4.34993  -9.40902  -6.41761  3.64469  30.9568  -2.81263  0.808057  -7.95103  1.84954  0.0327714  -2.3447  
-20.4758  94.1376  127.934  5.15365  68.8652  -2.79642  0.445938  1.21899  6.68067  0.180616  0.548154  2.96784  0.180616  0.548154  2.96784  0.132802  0.412005  2.2257  -1.6448  -3.25127  22.2992  -2.12255  -6.40557  5.27366  12.4286  -2.02805  6.3327  -26.1869  -18.3761  -4.48452  -0.253953  8.57582  3.16899  -13.9506  9.00874  -21.0596  -1.712  5.83986  5.64386  7.01091  11.8059  -10.492  7.6478  21.9507  13.8933  22.9487  -32.0344  -39.2942  -1.09235  -7.03667  12.9841  -1.69921  -0.816073  10.9883  3.12225  -7.81843  -21.3133  0.0756655  -0.00440521  0.214449  2.05911  -4.67912  -10.0224  -6.56057  4.09268  31.79  -2.95144  0.959534  -7.8156  2.80269  0.0949719  -3.1454  
-20.2696  94.1275  127.932  5.32937  68.9304  -2.49178  0.421313  1.35359  6.66761  0.16777  0.607609  2.96194  0.16777  0.607609  2.96194  0.122885  0.456533  2.22127  -1.6793  -3.20811  22.2225  -2.19416  -6.33753  5.13304  12.404  -2.00785  6.33998  -26.1152  -18.187  -4.71354  -0.0427669  8.21966  2.92479  -13.7739  9.03205  -20.9746  -1.73121  5.88183  5.62695  7.13013  11.8531  -10.4211  7.49169  21.8897  13.7497  22.9352  -31.9847  -39.2859  -1.18619  -7.05669  13.0222  -1.68904  -0.888693  10.8653  3.12209  -7.73081  -21.3084  0.0831398  -0.00412244  0.135372  2.08171  -4.96436  -10.6299  -6.6999  4.51666  32.6054  -3.11939  1.14923  -7.7438  3.63927  0.166044  -3.74676  
-20.0506  94.1184  127.93  5.52585  68.9861  -2.19215  0.394836  1.48652  6.65549  0.154129  0.666295  2.95647  0.154129  0.666295  2.95647  0.112376  0.50048  2.21716  -1.71999  -3.14928  22.1513  -2.28179  -6.24247  5.0028  12.3876  -1.99265  6.33358  -26.0563  -17.9657  -4.96414  0.175146  7.89367  2.67889  -13.592  9.06024  -20.9011  -1.75454  5.92919  5.60995  7.22401  11.9068  -10.3359  7.28716  21.8465  13.5993  22.9909  -31.9187  -39.2931  -1.30235  -7.09331  13.0733  -1.68717  -0.95863  10.7469  3.1407  -7.6624  -21.2845  0.0935449  -0.00401455  0.0634195  2.09449  -5.19579  -11.2491  -6.82888  4.9178  33.3667  -3.29655  1.31204  -7.65477  4.37476  0.239433  -4.1301  
-19.8196  94.1082  127.932  5.72372  69.0124  -1.86286  0.370079  1.62348  6.64371  0.141201  0.726794  2.95116  0.141201  0.726794  2.95116  0.102393  0.545793  2.21317  -1.75714  -3.08007  22.0851  -2.3661  -6.12738  4.88184  12.3816  -1.97302  6.32191  -26.0185  -17.7149  -5.23555  0.39272  7.59741  2.44363  -13.4261  9.08509  -20.8107  -1.76931  5.98313  5.59211  7.29731  11.9819  -10.2481  7.14973  21.7247  13.4634  22.9871  -31.8043  -39.2742  -1.43179  -7.14187  13.1095  -1.68388  -1.00589  10.6347  3.17874  -7.61835  -21.2683  0.103811  -0.00393462  -0.00407414  2.10648  -5.36345  -11.8381  -6.96929  5.25634  34.0463  -3.45327  1.4553  -7.62702  5.00479  0.308904  -4.28189  
-19.5828  94.0955  127.935  5.92589  69.0112  -1.54433  0.34613  1.7688  6.62471  0.128548  0.791022  2.94263  0.128548  0.791022  2.94263  0.0926023  0.593902  2.20677  -1.79886  -3.00323  22.0308  -2.46155  -5.99942  4.78298  12.3767  -1.9593  6.30364  -25.9893  -17.4503  -5.52166  0.612806  7.3541  2.17957  -13.2557  9.11237  -20.689  -1.78793  6.02794  5.58313  7.35697  12.0802  -10.1518  6.956  21.6289  13.3363  23.0817  -31.6976  -39.2969  -1.58297  -7.22021  13.1565  -1.67939  -1.01782  10.5163  3.21185  -7.53675  -21.2331  0.111341  -0.00381344  -0.0630745  2.15876  -5.48392  -12.4259  -7.16648  5.53907  34.6313  -3.57916  1.59944  -7.59994  5.53496  0.369939  -4.18429  
-19.3345  94.0803  127.944  6.12978  68.9674  -1.19421  0.324488  1.92023  6.6043  0.116849  0.857997  2.93348  0.116849  0.857997  2.93348  0.0835187  0.644076  2.1999  -1.83924  -2.9163  21.9835  -2.55774  -5.85251  4.69716  12.3754  -1.94131  6.28482  -25.9861  -17.1707  -5.824  0.845802  7.13607  1.89272  -13.0968  9.12967  -20.566  -1.801  6.06735  5.57338  7.39284  12.1996  -10.0563  6.84787  21.4774  13.2371  23.1153  -31.571  -39.303  -1.74211  -7.30511  13.1904  -1.67511  -1.01535  10.4036  3.22056  -7.35988  -21.2069  0.118663  -0.00371842  -0.118097  2.23744  -5.63273  -12.9842  -7.39672  5.81267  35.0908  -3.6382  1.7148  -7.63431  5.94625  0.416942  -3.82853  
-19.0826  94.0608  127.954  6.34474  68.929  -0.847858  0.300252  2.06534  6.58141  0.104113  0.922123  2.92324  0.104113  0.922123  2.92324  0.0736735  0.69211  2.19223  -1.88011  -2.82546  21.9447  -2.65634  -5.69845  4.6268  12.3793  -1.92174  6.25089  -26.0045  -16.91  -6.13351  1.10348  6.97144  1.59382  -12.9485  9.15888  -20.4393  -1.81301  6.11701  5.55648  7.42878  12.3172  -9.93989  6.67583  21.3723  13.1461  23.2227  -31.4675  -39.3447  -1.91488  -7.42805  13.2307  -1.6836  -0.969632  10.2924  3.24223  -7.20975  -21.179  0.129692  -0.00385942  -0.158419  2.34396  -5.79987  -13.5096  -7.65734  6.06366  35.4108  -3.61908  1.76466  -7.66268  4.84905  0.307528  -3.03535  
-18.8203  94.0382  127.966  6.54788  68.8775  -0.474456  0.280589  2.20707  6.55516  0.0934861  0.984816  2.91151  0.0934861  0.984816  2.91151  0.0654229  0.739077  2.18343  -1.91839  -2.73328  21.9119  -2.7509  -5.54111  4.56754  12.3822  -1.88674  6.23407  -26.0588  -16.6699  -6.45315  1.40155  6.81989  1.25608  -12.814  9.18771  -20.3466  -1.82515  6.16426  5.52894  7.45211  12.4475  -9.8153  6.58323  21.2228  13.0836  23.2593  -31.3423  -39.3532  -2.09438  -7.57416  13.2444  -1.68411  -0.884707  10.1949  3.26511  -7.07757  -21.1735  0.144572  -0.00417429  -0.192893  2.44146  -5.96105  -14.0071  -7.89519  6.23024  35.5769  -3.57947  1.80231  -7.69995  3.92675  0.2272  -2.31761  
-18.5534  94.0127  127.979  6.77621  68.8218  -0.101384  0.258831  2.34102  6.52615  0.0820686  1.04402  2.89858  0.0820686  1.04402  2.89858  0.0565986  0.783428  2.17374  -1.95954  -2.63677  21.888  -2.85235  -5.37648  4.52486  12.3796  -1.85667  6.21134  -26.1124  -16.5004  -6.7757  1.72739  6.75186  0.901252  -12.6955  9.19889  -20.268  -1.84366  6.22097  5.49398  7.46782  12.5781  -9.65735  6.44913  21.116  13.0321  23.3486  -31.2485  -39.3846  -2.28444  -7.72717  13.2664  -1.69695  -0.786189  10.111  3.30501  -7.00676  -21.1719  0.165359  -0.00475227  -0.217165  2.49783  -6.08678  -14.4425  -8.10239  6.29141  35.5889  -3.53987  1.80603  -7.69585  3.16943  0.17088  -1.67386  
